<?xml version="1.0" encoding="UTF-8"?><svg id="Layer_1" xmlns="http://www.w3.org/2000/svg" viewBox="0 0 693.88 382.42"><defs><style>.cls-1{fill:#1a1a18;}</style></defs><path class="cls-1" d="M0,0V382.42H693.88V0H0ZM345.41,351.01c-175.12,0-317.08-71.98-317.08-160.77S170.29,29.46,345.41,29.46s317.08,71.98,317.08,160.77-141.96,160.77-317.08,160.77Z"/><g><path class="cls-1" d="M134.59,111.65l53.28,.22c8.92,0,36.09,.22,52.47,14.5,17.12,14.94,18.85,40.38,13.97,63.36-10.53,49.53-42.58,75.41-74.33,80.99-6.26,1.11-13.1,1.78-29.38,1.78h-50.2l34.19-160.85Zm6.48,134.3c3.75,.22,9.5,.45,13.51,.45,14.73,0,27.68-1.12,39.85-11.16,16.5-13.61,22.52-37.7,24.18-45.51,4.83-22.75,1.48-43.72-18.87-49.75-6.71-2.01-15.62-3.12-35.67-2.23l-23,108.2Z"/><polygon class="cls-1" points="287.93 111.2 395.91 111.2 390.31 137.53 316.91 137.53 308.75 175.9 377.47 175.9 371.87 202.22 303.16 202.22 293.91 245.73 369.76 245.73 364.07 272.5 253.64 272.5 287.93 111.2"/><polygon class="cls-1" points="426.13 110.75 460.71 110.75 426.32 272.49 391.75 272.49 426.13 110.75"/><polygon class="cls-1" points="490.56 111.42 594.52 111.42 589.02 137.3 519.64 137.3 511.19 177.01 575.9 177.01 570.2 203.79 505.51 203.79 490.9 272.5 456.32 272.5 490.56 111.42"/></g></svg>